<?xml version="1.0" standalone="no"?><!DOCTYPE svg PUBLIC "-//W3C//DTD SVG 1.1//EN" "http://www.w3.org/Graphics/SVG/1.1/DTD/svg11.dtd"><svg t="1579077658667" class="icon" viewBox="0 0 1024 1024" version="1.1" xmlns="http://www.w3.org/2000/svg" p-id="5356" xmlns:xlink="http://www.w3.org/1999/xlink" width="200" height="200"><defs><style type="text/css"></style></defs><path d="M644.8 581.568l160.64 187.456A64 64 0 0 1 756.842667 874.666667H267.157333a64 64 0 0 1-48.597333-105.642667l160.661333-187.434667c18.922667 11.52 39.466667 20.629333 61.205334 26.944L267.157333 810.666667H480v-128h64v128h212.842667l-173.269334-202.133334a254.613333 254.613333 0 0 0 61.226667-26.965333zM512 149.333333c117.824 0 213.333333 95.509333 213.333333 213.333334s-95.509333 213.333333-213.333333 213.333333-213.333333-95.509333-213.333333-213.333333S394.176 149.333333 512 149.333333z m0 64a149.333333 149.333333 0 1 0 0 298.666667 149.333333 149.333333 0 0 0 0-298.666667z" p-id="5357"></path></svg>